<svg xmlns="http://www.w3.org/2000/svg" viewBox="0 0 109.9 200" fill="#031218" xmlns:v="https://vecta.io/nano"><path d="M54.5 16.1c8.7-5.3 18-6.2 27.5-2.9 2.1.7 4 1.9 5.5 2.8l1.5.9-1.8-1.9c-2.2-2.5-4.7-5.1-7.7-7C76.9 6.3 74 5.3 71 5c-2.5-.2-5.1 0-8.4.9-1.3.3-2.5.7-3.8 1-3.3.9-6.7 1.9-10.1 2.2l-1.4.1 1.4.4c3.3.8 6.6.7 9 .4 1.7-.2 3.3-.4 5-.7 2-.3 4.1-.6 6.1-.8 1.9-.1 4.3-.2 6.6.6h.1c-3.5-.2-6.8.3-9.6.9-4.1.8-7.3 2-10.2 3.6-2.6 1.5-7.3 5.4-8.3 6.9l-.7 1.1 1.1-.8c2.3-1.7 4.4-3.3 6.7-4.7zm1.4-2.1c2.8-1.6 6-2.8 10.1-3.6 3.1-.6 6.8-1.2 10.5-.5l.5.1-.3-.5c-.3-.5-.7-.6-1.1-.7h-.1c-2.4-.8-4.9-.8-6.8-.6-2.1.1-4.1.5-6.1.8-1.6.2-3.3.5-5 .7-2.1.2-4.7.4-7.4-.1 3-.4 5.9-1.2 8.7-2.1 1.2-.4 2.5-.7 3.8-1 3.3-.8 5.8-1.1 8.3-.9 3 .3 5.8 1.2 8.4 2.9 2.7 1.7 5 4.1 7.1 6.4a31.33 31.33 0 0 0-4.1-2c-9.7-3.4-19.1-2.4-27.9 2.9-1.7 1-3.3 2.1-4.9 3.3 1.6-1.8 4.5-4.1 6.3-5.1zM18.2 73.7h0c-1.9 2.8-4 5.7-6.6 8.2-.5.5-1 1-1.6 1.5-.8.7-1.5 1.4-2.3 2.2-3.4 3.5-5 7.2-4.9 11.1v1.4l.4-1.3c.1-.2.1-.3.2-.5.1-.4.2-.7.4-1.1C5 91.8 6.9 88.7 10.2 85c.6-.7 1.2-1.3 1.8-1.9 1.3-1.4 2.6-2.9 3.8-4.4 1.4-1.7 2.4-3.5 3.2-5.3l.5-1.1-.8.8c-.2.2-.3.4-.5.6zm-2.6 4.6c-1.2 1.5-2.5 3-3.8 4.4-.6.6-1.2 1.3-1.8 1.9-3.3 3.8-5.4 6.9-6.5 10.4v.1c.3-3.2 1.8-6.2 4.7-9.2.7-.7 1.5-1.5 2.3-2.2.5-.5 1.1-1 1.6-1.5 2-2 3.8-4.2 5.3-6.4-.6.9-1.2 1.7-1.8 2.5zM39.9 71c3.4-4.2 6.5-8.7 9.6-13l.5-.7c0-.1.1-.1.1-.2.1-.2.2-.4.3-.4s0 .3-.1.5c0 .1-.1.2-.1.2-1.9 6.6-4.2 14.3-7.5 21.5-.1.1-.1.3-.2.4 0 .1 0 .1-.1.2l-.2.6.5-.3c.3-.1.4-.3.5-.5C46 75 48 70.5 49.5 67.1l1-2.3c3.4-7.9 6.9-16.1 10.9-23.9 3.4-6.5 6.5-11.7 10.8-16.3.1-.1.1-.2.1-.2v-.1l.2-.6-.6.3c-3.4 2.3-5.9 5.3-8.4 8.3.2-.4.5-.8.8-1.2 1.7-2.6 4-5.8 7.2-8.3 4-3 8-4.1 12.4-3.4 2.9.5 5.6 1.6 8.6 3.7.5.3 1 .7 1.5 1.1.2.2.5.3.7.5l1 .7-.7-1a16.4 16.4 0 0 0-3.4-3.6c-3.3-2.4-7.2-4.3-12.3-6-4.6-1.5-8.5-2-12.3-1.5-4.8.7-9.1 3.1-13.5 7.4-3 3-5 6.6-7 10.6-4.2 8.1-8.5 15-13.2 21.2-.1.1-.2.3 0 .6l.1.2.2-.1c3.3-2.1 5.7-5.1 8-8.1.5-.6 1-1.3 1.5-1.9-.1.3-.3.5-.4.7s-.2.3-.3.5c-2.7 5.1-5.9 10.4-10.3 14.8-.8.8-.8.8-1.6 0-1.6-1.6-2.8-3-3.7-4.6-2.6-4.6-6.7-7.4-11-10.3l-1.4-.9.3.8c.2.5.4 1 .7 1.5.5 1.1.9 2.1 1.4 3.1 1.3 2.8 2.1 5.8 2.9 8.7l.2.7c.8 3 2.7 5.2 4.5 7.1.1.1.2.1.3.1h.1l.4.1-.1-.4c-.2-.5-.3-1.1-.5-1.6a62.63 62.63 0 0 0-2.1-6.1c-.7-1.6-1.1-3-1.5-4.4 0-.1-.1-.2-.1-.3-.2-.5-.2-.7 0-.8s.4.1.7.6c0 .1.1.1.1.2 1.7 2.6 2.8 5.1 3.6 7.6.5 1.8.8 3.5.8 5.2 0 .5-.1.8-.3 1s-.5.2-1 .1-.7.1-1 .3l-.4.4-3.2 2.9c-.1 0-.2.2-.2.3s.1.2.2.3l.1.1.4-.2c.2-.1.3-.2.5-.2 5.4-3 10.8-6.7 16.5-11.5l.2-.2c.2-.2.3-.3.4-.3.1.1.1.1-.1.5-.1.1-.1.2-.1.2-4.6 9.1-8.8 17.3-13.9 25.1l-.1.1c-.1.2-.3.4-.3.7v.3h.3c.1 0 .1 0 .2-.1h.1a3.04 3.04 0 0 0 .7-.5c6-4.2 10.8-8.8 14.8-13.8zm-15 13.7c-.1 0-.1.1-.2.1 5.1-7.8 9.3-16 13.9-25.1 0-.1.1-.1.1-.2.2-.3.5-.8 0-1.1-.1-.1-.2-.1-.3-.1-.3 0-.5.3-.7.4l-.2.2c-5.6 4.6-10.9 8.3-16.1 11.2.8-.7 1.6-1.5 2.5-2.2l.4-.4c.2-.2.3-.3.6-.2.7.1 1.1 0 1.4-.3s.4-.7.4-1.4c0-1.7-.3-3.5-.8-5.3-.8-2.6-2-5.1-3.6-7.7 0-.1-.1-.1-.1-.2-.2-.4-.6-1.1-1.3-.8-.6.3-.4.9-.2 1.3 0 .1.1.2.1.3.3 1.4.8 2.8 1.5 4.4.8 2 1.4 4 2.1 6.1l.3.9c-1.7-1.8-3.3-3.9-4-6.6l-.2-.7c-.8-2.9-1.6-6-2.9-8.8-.5-1-.9-2-1.4-3.1-.1-.2-.2-.5-.3-.7C20 47.8 24 50.6 26.6 55c.9 1.5 2.1 3 3.7 4.7 1 1 1.3 1 2.2 0 4.5-4.5 7.7-9.8 10.4-15 .1-.2.2-.3.3-.5.4-.7.8-1.4 1-2.2l.3-1-.7.8c-.9 1-1.7 2-2.5 3-2.1 2.7-4.3 5.4-7.2 7.5 4.6-6.1 8.8-12.9 12.9-20.8 2.1-4 4-7.5 7-10.5 4.3-4.3 8.5-6.6 13.2-7.3 3.7-.5 7.5-.1 12.1 1.4 5 1.7 8.9 3.6 12.1 5.9 1 .7 1.8 1.5 2.5 2.3-.3-.2-.7-.5-1-.7-3.1-2.1-5.9-3.3-8.8-3.8-4.6-.7-8.7.4-12.8 3.5-3.3 2.5-5.6 5.8-7.3 8.4-.8 1.3-1.5 2.4-2 3.5l-1 2 1.3-1.5c.6-.7 1.1-1.4 1.7-2 2.1-2.5 4.2-5.2 6.9-7.2-3.8 4.3-6.8 9.3-9.9 15.3-4 7.8-7.5 16-10.9 23.9l-1 2.3c-1.3 3-3 6.8-5.2 10.6 2.9-6.8 5-13.8 6.8-19.9 0-.1 0-.1.1-.2.1-.3.3-.9-.2-1.1s-.8.3-.9.6c0 .1-.1.1-.1.2l-.6.5c-3 4.3-6.2 8.8-9.5 13-4 4.9-8.7 9.5-14.6 14z"/><path d="M109.8 29.7c-.1-3.1-.6-7.1-3.3-10.5-1.3-1.7-2.9-3.1-4.5-4.5l-.1-.1c-1.6-1.4-3.3-2.9-4.6-4.7-1.7-2.5-2.7-5.3-3.5-8 0-.1 0-.2-.1-.3-.1-.4-.2-.9-.7-.9-.6 0-.7.6-.7 1V2c-.6 2.4-1.1 5.1-.9 7.7.1 1.6.5 3.1 1.2 4.8-2.1-2.6-4.5-5.4-7.3-7.9-4.2-3.7-9-5.9-14.2-6.4-3.8-.4-7.6.2-11.7 1.6-2.3.8-4.5 1.7-6.6 2.6-.9.4-1.9.8-2.9 1.2-4 1.7-7.5 2.3-11 2-2.4-.2-4.8-.8-7-1.6-.1 0-.2-.1-.4-.1h-.1-.1c-.2-.1-.6-.2-.8.1-.2.4.1.7.2.9l.1.1c.4.5 1 .9 1.8 1.3 2.1 1.2 4.4 2.1 7 3 3 .9 5.8 1.4 8.4 1.4h.3c-1.8.4-3.9.5-6.4.5-3.7-.1-7.3-.5-10.7-1.4-5.2-1.3-9.5-4.1-12.6-8.4-.3-.4-.6-.9-1-1.3-.1-.1-.2-.1-.2-.1h-.1l-.3-.4-.1.1c-.2.3-.1.7-.1.9v.2c.4 2 1.5 3.8 3.4 5.7 4.1 4.3 9.4 7.2 15.7 8.8.9.2 1.6.4 2.4.7-.3.1-.5.1-.8.2-3.9 1-7.1 3.2-9.5 6.5l-.2.3c-.8 1.2-1.7 2.4-2.4 3.7-2 3.8-5 7.1-9.2 10-.2.2-.4.3-.6.5-.1.1-.1.2-.1.3s0 .1-.1.2l-.2.5.5-.2c1.3-.6 2.6-1.3 3.8-1.9 5-2.5 9.8-5 14.9-6.7-2.8 1.4-5.8 2.9-8.1 5.2-2 1.9-3.5 4.3-5 6.6l-.2.3-.4.6c-.1 0-.4-.2-.6-.4-1.1-.8-2.4-1.7-3.9-2.5-.8-.4-1.5-.6-2.2-.6s-1.4.2-1.9.7-.7 1.1-.6 1.9c0 .7.2 1.5.6 2.3l.5 1.1 2.4 5.3c.4.9.4 1.6-.1 2.4-2 3.2-3.5 6.6-4.7 9.6-.4 1.1-1 2.1-1.7 3.3-1.6 2.7-3.9 4.2-7.1 4.7-.3 0-.6.1-.9.2-.1 0-.3.1-.4.1H0v.5h.2c4.1.5 9.7-.8 12.6-6.3-.2 2.7-.7 4.7-1.7 6.5-1.3 2.3-2.3 4.1-3.2 5.9 0 .1-.1.1-.1.2-.2.2-.5.7 0 1.1.4.3.8-.2.9-.4 0-.1.1-.1.1-.2.3-.4.6-.7.9-1.1 1.4-1.6 2.8-3.2 4.3-4.7-.4 1-1 1.9-1.7 2.8-1.2 1.5-2.6 3-3.9 4.3l-1.5 1.5c-2.2 2.3-4 4.4-5 7.2-2.1 5.9-1.4 11.7 2.2 17.1l.1.2c.5.7 1 1.5 1.7 2.1l.2.2.1-.3c.2-.4 0-.8-.1-1v-.1c-.5-1.3-.9-2.5-1.3-3.8-.8-3.3-.4-6.3 1.5-9.2 1.5-2.3 3.3-4.5 5-6.4.5-.6 1-1.1 1.5-1.7 1.5-1.7 3.1-3.5 4.5-5.4 1.6-2.1 2.8-4.3 3.7-6.6v-.1c.1.4 0 .9-.2 1.4-1.1 4.1-2.9 8-4.7 11.7l-.3.6c-.7 1.6-1.6 3.2-2.4 4.8-1.3 2.5-2.6 5.1-3.6 7.7-2.6 6.5-3.4 13.1-2.4 19.7.6 3.9 1.7 7.1 3.3 9.6.1.2 1.1 2.5 2.4 5.2l.2.5.2-.4c.2-.4-.3-2.8-1.5-8-.4-1.7-.8-3.2-.8-3.7-.8-5.4 0-10.8 2.5-16.6 2.7-6.1 6.6-11.7 11.8-16.6l.2-.2v.4c0 .5 0 1 .1 1.4.1 2.1.3 3.9.6 5.6.3 1.6.3 3.1.3 4.7 0 1 0 2 .1 3.1v.2c0 .2 0 .4.1.6.1.5 0 .7-.5 1-1.2.7-1.2 2-1.1 2.9s.4 1.8.9 2.7c.1.3 4.1 9.9 11.1 27.1 2 4.8 2.6 10.1 1.9 15.3L37.9 179c-.3 2.1.6 4.1 1.5 5.8.4.7.1 1.1-.2 1.4-.2.2-.4.5-.3.8.9 3.9 2.7 7.2 5.4 9.7 1.3 1.2 2.9 2.1 4.8 2.7l4.8.5h0 0c.4 0 .8-.1 1.2-.1 1-.1 2.1-.2 3.1-.4 2.3-.4 4.1-1.4 5.5-3.1.8-1 1.8-1.9 2.8-2.7.6-.5 1.3-1.1 1.9-1.7l.2-.2c.3-.3.6-.6.8-.9 1.4-1.8 3.7-6.2 2.9-15.9v-.2c0-.9-.1-1.8-.1-2.6-.1-2.6-.3-5.2-.2-7.8.2-4.4.7-8.3 1.5-11.7.8-3.3 1.9-6.6 3-9.8l1.9-5.8c.1-.4.3-.6.6-.9 3-3.1 6-6.5 7.9-10.6 2.8-5.9 4.2-11.9 4.2-17.6 0-5.9-1.5-11.8-4.4-17.6h0c-.2-.5-.4-.7-.3-.9 0-.1.3-.3.7-.6h0c4.6-3.4 9.3-7.2 13.1-12.1 3.2-4.2 5.3-9 6.4-14.6 1.1-5.2 1.8-10.8 2.3-16.4l.1-1.3c.6-5 1-9.9.8-14.7zm-1 14.5l-.1 1.3c-.4 5.6-1.2 11.1-2.3 16.4-1.1 5.6-3.2 10.3-6.3 14.4-3.7 4.9-8.4 8.7-13 12h0c-1.1.8-1.1.9-.5 2.1h0c2.9 5.7 4.3 11.5 4.4 17.4 0 5.7-1.4 11.6-4.1 17.4-1.9 4.1-4.9 7.5-7.9 10.5-.3.4-.6.7-.7 1.1-.6 2-1.3 3.9-1.9 5.8-1.1 3.2-2.2 6.5-3 9.8-.9 3.5-1.4 7.4-1.6 11.8-.1 2.6 0 5.3.2 7.9 0 .9.1 1.8.1 2.6v.3c.3 3.3.5 11.4-2.8 15.6h0c-.2.3-.5.6-.7.8-.1.1-.2.1-.2.2-.6.6-1.2 1.1-1.9 1.7-1 .9-2 1.7-2.9 2.8-1.3 1.5-3 2.5-5.3 2.9-1 .2-2.1.3-3.1.4-.4 0-.8.1-1.2.1l-4.7-.5c-1.8-.6-3.3-1.5-4.6-2.6-2.7-2.4-4.4-5.5-5.3-9.4 0-.1.1-.2.2-.4.3-.4.8-.9.3-1.9-.8-1.6-1.7-3.5-1.4-5.5l1.3-23.8c.7-5.3.1-10.6-1.9-15.6l-11.1-27.1c-.4-.8-.7-1.7-.8-2.5-.1-1.2.1-2 .9-2.4.6-.4.8-.8.7-1.5 0-.2 0-.4-.1-.6v-.2c-.1-1-.1-2-.1-3 0-1.6 0-3.2-.3-4.8-.3-1.7-.5-3.5-.6-5.5 0-.5 0-.9-.1-1.4v-.7-.2l-.6-.2-.1.1-.1.1c-.1.1-.1.2-.2.3-5.2 4.9-9.2 10.5-11.9 16.8-2.6 5.8-3.4 11.3-2.5 16.8.1.6.4 2.1.8 3.8.5 1.9 1.1 4.8 1.4 6.4-1.3-2.8-1.8-3.9-1.8-4.1-1.6-2.5-2.7-5.6-3.2-9.4-1-6.5-.2-13 2.4-19.4 1.1-2.6 2.4-5.2 3.6-7.7l2.4-4.8.3-.6c1.8-3.8 3.6-7.7 4.7-11.8.2-.6.4-1.4 0-2.2l-.1-.2-.2.1c-.3.2-.4.4-.4.6v.1c-.9 2.3-2.1 4.5-3.7 6.5-1.4 1.8-3 3.6-4.5 5.3-.5.6-1 1.1-1.5 1.7-1.6 1.9-3.5 4.1-5 6.4-1.9 3-2.4 6.2-1.5 9.6.3 1.3.8 2.6 1.3 3.8 0 0 0 .1.1.1 0 .1 0 .1.1.2-.5-.5-.9-1.1-1.2-1.6l-.1-.2C1.4 101.1.6 95.5 2.7 89.7c1-2.7 2.8-4.8 4.9-7 .5-.5 1-1 1.4-1.5 1.3-1.4 2.7-2.8 4-4.4.9-1.2 1.6-2.5 2.1-4l.3-.9-1 1-.5.5c-1.5 1.5-3 3.2-4.4 4.8-.3.4-.6.7-.9 1.1 0 .1-.1.1-.2.2s-.2.3-.3.3-.1-.1.1-.4c.1-.1.1-.1.1-.2.9-1.8 2-3.6 3.2-5.9 1.2-2.1 1.8-4.6 1.8-7.9v-1.3l-.5 1.2c-2.3 5.6-7.4 7.4-11.5 7.2h.1c3.2-.5 5.7-2.1 7.4-4.9.7-1.2 1.3-2.3 1.7-3.4 1.2-2.9 2.7-6.3 4.7-9.5.6-1 .7-1.8.2-2.8a273.5 273.5 0 0 1-2.4-5.3l-.5-1.1c-.3-.8-.5-1.5-.6-2.1 0-.6.1-1.1.5-1.5s.9-.6 1.5-.6 1.2.2 2 .6c1.5.7 2.8 1.6 3.8 2.4.5.4.7.5 1 .5.3-.1.4-.3.8-.8l.2-.3c1.4-2.3 2.9-4.6 4.9-6.5 2.3-2.3 5.3-3.7 8.1-5.2l.1-.1 1.8-.9c.3-.1.6-.3.8-.4l-.2-.4c-6.3 1.8-12.3 4.8-18 7.7-.9.4-1.8.9-2.7 1.4 4.2-2.9 7.1-6.2 9.1-10.1.7-1.3 1.5-2.5 2.3-3.7l.2-.3c2.3-3.3 5.4-5.4 9.2-6.4.3-.1.7-.2 1-.3.2 0 .3-.1.5-.1l.7-.2-.7-.3c-1-.4-2-.6-3.1-.9-6.2-1.5-11.3-4.4-15.4-8.6-1.9-1.9-2.9-3.6-3.3-5.5v-.2c0-.1 0-.2-.1-.2.6.2.9.5 1.1.9 3.2 4.4 7.6 7.3 12.9 8.6 3.5.8 7.1 1.3 10.8 1.4 2.6.1 4.8-.1 6.7-.6h.1c.2 0 .5-.1.8-.3l.4-.4-.5-.1c-.2 0-.3 0-.5-.1-.3 0-.6-.1-.9-.1-2.5 0-5.2-.4-8.2-1.4-2.6-.8-4.9-1.8-6.9-2.9-.7-.4-1.2-.8-1.6-1.2l-.1-.1c-.2-.2-.2-.2-.2-.3 0 0 .2 0 .2.1h.1.1c.1 0 .2.1.4.1C34 7.2 36.4 7.7 38.8 8c3.6.3 7.1-.3 11.3-2 .9-.4 1.9-.8 2.9-1.3 2.1-.9 4.3-1.9 6.6-2.6C63.6.7 67.4.2 71.1.6c5.1.5 9.8 2.6 13.9 6.2 3 2.7 5.6 5.8 7.7 8.4.1.1.2.3.4.4l.2.2 1 1.1-.6-1.4c-.9-2.2-1.6-4-1.7-6.1-.2-2.4.3-5 .9-7.4v-.4c0-.5.1-.5.2-.5h0c.1 0 .2.3.2.5 0 .1 0 .2.1.3.8 2.7 1.8 5.6 3.5 8.1 1.3 1.9 3 3.4 4.6 4.8l.1.1c1.5 1.4 3.1 2.8 4.4 4.4 2 2.6 3 5.7 3.2 10.2.3 5 0 9.9-.4 14.7z"/><path d="M99.2 33.4c-2.3-3.3-5.3-5.8-8.8-7.5-5.8-2.8-11.3-2-15.8 2.3-2.2 2.2-3.8 4.7-4.9 6.7-2.2 4-4 8.3-5.7 12.4-.3.8-.6 1.6-1 2.3-2.9 7-6.6 15.2-11.2 23.1-1.6 2.7-5 6.7-6.6 8.6l-.2.1c-3.8 4.4-5.4 10.6-6.1 13.3-.1.2-.1.5-.2.7-1.2-2.2-2.9-6-2.5-9.7.3-3.1 1.6-5.7 2.9-8.2l.6-1-.4-.3c-3.6 4.4-7.7 8.2-11.6 11.8-.9.8-1 1-.4 2v.1c.3.5.5 1.1.7 1.6.5 1.3.8 2.7 1.1 4.1.1.3.1.6.2.8.7 2.9.5 6-.6 9.4-.1.3-.2.6 0 .8.1.2.4.3.8.3h.1c1.5 0 2.7-.6 4-1.2.1-.1.3-.1.4-.2.1 0 .2-.1.2-.1a.76.76 0 0 1 .4-.2.78.78 0 0 1-.4.4h0c-1.3 1-2.7 2-4.6 2.1-.6 0-1.2.1-1.8.3-1.1.2-1.4.8-1.2 1.9.3 1.2.8 2.4 1.8 3.7 1.4 1.8 2.6 3.9 3.7 6.3 2 4.8 3.7 9.8 5.4 14.6.2.7.5 1.4.7 2.1.5 1.4.9 2.8 1.3 4.1.2.6.4 1.3.6 1.9l.5 1.5v-1.6c0-1 .1-1.9.2-2.9v-.4-.2c0-.4.1-.5.2-.5.2 0 .2.1.4.5v.1c.3.7.4 1.4.6 2 .5 2.3.8 4.7 1.1 7 .1.6.1 1.2.2 1.8.8 6.6.6 13.4-.8 20.8-.1.7-.3 1.5-.4 2.2-.4 2-.8 4.1-1 6.2-.1 1.8-.1 3.3 0 4.7.1.9.9 1.8 1.7 1.9 1 .1 1.4-.7 1.7-1.3.2-.3.3-.7.4-1.2.4-1.7.7-3.5.9-5.4.2 3.3-.2 6-1.3 8.4-.4.8-.4 1.5-.2 2.4l.3 1.7v.2c0 .4 0 .6-.2.6-.1 0-.2 0-.3-.3 0-.1-.1-.1-.1-.2-.1-.1-.1-.2-.2-.3-.1-.3-.3-.6-.6-.8l-.7-.5.4.8a13.59 13.59 0 0 0 3.2 4.5c.2.2.4.4.7.3s.4-.4.4-.6c.2-.9.5-1.8.5-2.8v-.8c0-1 0-2.1.1-3.2v-.2c0-.4.1-.4.1-.4s.1.2.1.3v.3c.1.4.2.8.2 1.3.1.7.2 1.3.4 2 .3 1.1.6 2.4 1.4 3.5.8 1.3 2.1 1.3 3.2 1.1 1.2-.2 2-.9 2.2-2.1.1-.4.1-.7.2-1.1s.1-.9.2-1.3.1-.8.3-1.1c0 .3 0 .5-.1.8 0 .2 0 .3-.1.5-.1 1.2 0 2.2.4 3.1.4 1 1.1 1.6 2 1.8.2 0 .3.1.5.1.7 0 1.4-.3 2-.9l.1-.1c.3-.3.6-.6.9-1l.4-.3h.1 0c.4-.3.8-.7 1.1-1l2.8-2.5c1-.9 1.6-1.9 2-3 .8-2.4 1.2-5.1 1.3-8.1v-7.2-3.9c0-5.6.7-11.1 2.3-16.3 1.1-3.7 2.6-7.3 4.1-10.8.2-.5.4-1 .6-1.4.1-.1.1-.3.2-.4 0-.1.1-.2.1-.3l.3-1-.7.7-.3.3-.3.3c-.2.2-.4.4-.6.5-.6.6-1.2 1.2-2 1.6l-.1.1c-.1 0-.2.1-.2.1s.1-.2.2-.2c0-.1.1-.1.1-.1.5-.7.9-1.2 1.3-1.8.7-1 1.5-1.9 2.3-2.8 1.6-2 3.2-4 4.7-6.1 5.8-8.6 7.9-18.3 6-28.8-.6-3.6-1.9-7.1-3.8-10.9-.9-1.7-1.8-3.7-2.1-5.9-.2-1.5-.7-2.9-1.8-4.3-1.5-2-1.5-3.6.1-5.6 2-2.4 3.6-4.6 4.9-6.8 0-.1.1-.1.1-.2.1-.1.2-.3.3-.4h.1c.1.1 0 .4-.1.6v.1c-.6 1.8-1.3 3.8-2.6 5.5-.5.7-1 1.5-1.5 2.2l-.1.2c-.6 1-.6 2 .1 2.9.2.2.4.4.5.7.5.6 1 1.2 1.4 2 .1.2.2.5.5.5.3.1.5-.1.8-.2 1.6-1 3.3-2.1 5.2-3.5 7.2-5.1 12-11.8 14.2-19.8.8-3.1 1.7-6.7 1.3-10.4-.3-5.3-2.2-9.9-5.8-14.9zM61.6 186.8c-.1-.3-.5-.5-1.1-.6-1.3-.3-2.3-1.3-2.9-2.6s-.6-2.7 0-3.9v-.1-.1.1h0v1.2c0 .9.2 1.6.5 2.2.7 1.3 1.7 1.7 3.1 1.2.8-.3 1.6-.8 2.4-1.2.5-.3.9-.5 1.4-.8.1 0 .2-.1.3-.2.4-.2.6-.4.9-.2s.3.6.3 1.1v.2c-.1 1.8-.5 3.6-1.2 5.4-.6 1.5-1.5 2.2-2.9 2.3-.6 0-1.4.1-2 .6-.2.2-.6.5-.4 1.1.2.5.6.6.9.6.5.1.9 0 1.3-.1h.1v.1h0l-.3.3c-.1 0-.1.1-.2.1-.1.1-.3.1-.4.2-.9.3-1.6.2-2.1-.3-.5-.4-.6-1-.3-1.9.3-1.1.9-2 1.4-2.6.1-.2.3-.4.5-.6.1-.1.2-.3.3-.4.2-.4.5-.8.4-1.1zm41.7-128.7c-2.2 8-6.9 14.5-14.1 19.6L84 81.2c-.2.1-.3.2-.4.1 0 0-.1-.1-.2-.3-.3-.8-.9-1.5-1.4-2.1-.2-.2-.4-.4-.5-.6-.6-.8-.6-1.5-.1-2.3l.1-.2c.5-.7.9-1.5 1.5-2.2 1.3-1.8 2.1-3.7 2.7-5.6v-.1c.1-.4.3-.9-.1-1.2-.2-.1-.3-.1-.4-.1-.3.1-.4.4-.5.6 0 .1-.1.1-.1.2-1.3 2.1-2.9 4.3-4.9 6.7-1.8 2.1-1.8 3.9-.1 6.2 1 1.3 1.5 2.6 1.7 4 .2 2.3 1.2 4.4 2.1 6.1 1.9 3.7 3.2 7.2 3.8 10.7 1.8 10.4-.2 19.9-6 28.5-1.4 2.1-3.1 4.1-4.7 6.1-.8.9-1.5 1.9-2.3 2.9-.4.5-.9 1.1-1.3 1.8l-.1.1c-.1.2-.4.5-.1.9.3.3.7.1.9 0l.1-.1c.8-.5 1.4-1.1 2-1.6.2-.1.3-.3.5-.4-.2.4-.3.8-.5 1.2-1.5 3.5-3 7.2-4.1 10.9-1.6 5.3-2.3 10.9-2.3 16.5v3.9c0 2.3.1 4.8 0 7.1 0 3-.4 5.6-1.2 8-.3 1-.9 1.9-1.8 2.7l-2.8 2.5c-.3.3-.6.5-.9.8 0 0 0-.1-.1-.1-.2-.2-.5-.1-.6-.1-.4.1-.8.1-1.2.1-.3-.1-.4-.1-.5-.3s0-.3.3-.5c.5-.4 1.2-.5 1.7-.5 1.6-.1 2.7-.9 3.4-2.6a17.5 17.5 0 0 0 1.2-5.5v-.2c0-.5.1-1.1-.5-1.5-.5-.4-1.1-.1-1.4.2-.1.1-.2.1-.3.1-.5.2-1 .5-1.4.8-.7.4-1.5.8-2.3 1.2-1.1.4-1.9.1-2.5-.9-.3-.5-.4-1.2-.4-2v-1.2h0c0-.2 0-.5-.4-.6s-.5.2-.6.4h0c-.7 1.3-.7 2.8 0 4.3.6 1.4 1.8 2.5 3.2 2.9.2.1.8.2.8.3s-.3.6-.5.8c-.1.1-.2.3-.3.4-.2.2-.3.4-.5.6-.5.7-1.2 1.6-1.4 2.8-.2.7-.3 1.7.5 2.4.4.4.9.5 1.4.5.3 0 .5-.1.8-.1l-.2.2-.1.1c-.6.6-1.4.8-2 .7-.7-.2-1.3-.7-1.6-1.5s-.4-1.7-.4-2.8c0-.2 0-.3.1-.5.1-.4.1-1 0-1.5l-.1-.4-.3.3c-.6.6-.7 1.2-.8 1.8-.1.4-.2.9-.2 1.3-.1.4-.1.7-.2 1.1-.2 1-.8 1.6-1.8 1.7-1 .2-2 .2-2.7-.9s-1.1-2.3-1.3-3.4c-.2-.6-.3-1.3-.4-2-.1-.4-.2-.9-.2-1.3v-.2c0-.3-.1-.8-.6-.8s-.6.6-.6.9v.2c-.1 1.1-.2 2.2-.2 3.2v.8c0 .9-.2 1.8-.5 2.6-.1.2-.1.2-.1.3 0 0-.1 0-.3-.2-.8-.7-1.4-1.5-2-2.4h.2c.6-.2.5-.8.5-1.1v-.2c-.1-.6-.1-1.2-.3-1.8-.2-.7-.1-1.4.2-2.1 1.2-2.6 1.6-5.5 1.3-9.2 0-.1 0-.2-.1-.3 0-.1 0-.1-.1-.2l-.1-.4-.3.3c-.3.3-.3.7-.3.9v.1c-.2 2-.5 3.7-.9 5.4-.1.4-.2.8-.3 1.1-.3.7-.6 1.1-1.2 1.1s-1.2-.7-1.2-1.5c-.2-1.4-.2-2.8 0-4.6.2-2.1.6-4.2 1-6.2.1-.7.3-1.5.4-2.2 1.3-7.5 1.6-14.3.8-20.9-.1-.6-.1-1.2-.2-1.7-.3-2.3-.6-4.7-1.1-7-.1-.6-.3-1.3-.6-2.1v-.1c-.1-.3-.3-.9-.9-.8-.5.1-.6.6-.6.9v.1.4c-.1.5-.1 1-.2 1.6-.1-.2-.1-.4-.2-.6-.4-1.4-.9-2.8-1.3-4.2-.2-.7-.5-1.4-.7-2.1-1.6-4.8-3.3-9.8-5.4-14.6-1-2.5-2.3-4.6-3.7-6.4-.9-1.2-1.5-2.3-1.7-3.5-.2-.8 0-1.2.8-1.3.5-.1 1.1-.2 1.7-.3 2-.1 3.6-1.2 4.9-2.2h0c.2-.2.6-.5.6-1v-.2h-.2c-.4-.1-.7.1-1 .2-.1 0-.1.1-.2.1-.2.1-.3.1-.5.2-1.3.6-2.4 1.2-3.9 1.2-.3 0-.4-.1-.4-.1s0-.1.1-.4c1.1-3.5 1.3-6.6.6-9.6-.1-.3-.1-.6-.2-.8-.3-1.4-.6-2.8-1.1-4.1-.2-.5-.4-1.1-.8-1.7v-.1c-.2-.4-.3-.6-.3-.8 0-.1.2-.3.6-.7 3.4-3.1 6.9-6.3 10.1-10-1.3 2.2-2.3 4.6-2.6 7.3-.4 4 1.6 8.2 2.8 10.4.1.1.2.1.3.1.2 0 .3-.2.6-1.3.7-2.6 2.3-8.8 6-13.1l.1-.1c1.6-1.9 5.1-5.9 6.7-8.6C56.9 65.2 60.5 57 63.5 50c.3-.8.7-1.6 1-2.3 1.7-4.1 3.5-8.4 5.7-12.3 1.1-2 2.7-4.5 4.8-6.6 4.3-4.2 9.6-5 15.3-2.3 3.5 1.7 6.4 4.1 8.6 7.4 3.5 5 5.4 9.5 5.8 14.3.2 3.3-.6 6.9-1.4 9.9z"/><path d="M66.4 76c.1.1.3.3.6.3.1 0 .3 0 .4-.2.3-.3.1-.7 0-.8v-.1l-.2-.4-1.2-2.5c-.6-1.1-.7-2.4-.3-4 .3-1.2.8-2.3 1.2-3.4.1-.3.2-.6.4-.9 0-.1.1-.2.1-.4.1-.2.1-.5.2-.5s.2.4.2.5.1.2.1.4l.3.8 2.3 4.9c.1.1.1.2.2.3.3.5.7 1.2 1.5.9.9-.3.7-1.3.7-1.9v-.1c-.3-2.6-1-5.9-3.3-8.5-.7-.8-.9-1.5-.8-2.6.3-1.5.3-3 .3-4.5l.1-2.5v-.4c0-.3.1-.6.1-.9v-.1-.2l.1.1.1.1.6.6c1.5 1.8 2.6 3.9 3.3 6.4l1.2 4.4.9 3.2c.1.5.3 1 .5 1.4.1.3.3.4.5.4.1 0 .3-.1.5-.4.2-.5.2-1 .2-1.5 0-2-.3-4-.6-5.9v-.3c-.5-3.4-1.5-6.2-3-8.7-.6-.9-1.3-2-2.4-2.8-1-.8-2.1-1.1-3-.8-1 .3-1.7 1.1-2.1 2.3l-.3 1.5c-.2 1.7-.3 3.4-.3 5.1v1.4c-.1 3.3-1 6.4-1.9 9-1.5 4.3-.9 7.7 1.8 10.4.3.3.6.6 1 .9zM64 64.9c.9-2.6 1.9-5.7 2-9.1v-1.4c0-1.7.1-3.4.3-5 .1-.6.2-1 .3-1.4.4-1.1 1-1.8 1.8-2 .2-.1.4-.1.6-.1.6 0 1.3.3 2 .8 1 .8 1.7 1.8 2.3 2.7 1.5 2.4 2.5 5.2 3 8.5v.3c.3 1.9.6 3.9.6 5.8 0 .5 0 .9-.2 1.3 0 .1 0 .1-.1.1v-.1c-.2-.5-.4-.9-.5-1.4l-.9-3.2-1.2-4.4c-.7-2.6-1.8-4.7-3.4-6.6-.2-.2-.4-.4-.6-.7l-.1-.1c-.1-.1-.3-.4-.7-.2-.2.2-.2.5-.2.6v.1c0 .3-.1.6-.1.9v.4h0c-.1.9-.1 1.7-.1 2.6 0 1.5-.1 3-.3 4.4-.2 1.2 0 2 .9 3 2.3 2.5 2.9 5.7 3.2 8.3v.1c.1.7.1 1.2-.4 1.4-.4.1-.6-.2-1-.7-.1-.1-.1-.2-.2-.3-1-1.5-1.6-3.2-2.3-4.8-.1-.3-.2-.5-.3-.8 0-.1-.1-.2-.1-.3-.1-.4-.3-.9-.7-.9-.5 0-.6.5-.7.8 0 .1-.1.2-.1.3-.1.3-.2.6-.4.9-.5 1.1-.9 2.3-1.2 3.5-.4 1.7-.3 3.1.3 4.3.4.8.8 1.7 1.2 2.5l.2.4v.1c.1.2.1.2.1.3-.1 0-.1.1-.4-.1-.3-.3-.6-.6-.9-.8-2.5-2.7-3.1-5.9-1.7-10zm14.3 41.8c.2 2.6-.4 3.6-2.8 4.7-.1 0-.2.1-.2.1l-.6.3c-1.7.7-3.2 1.7-4.6 3.1-.6.6-1.4 1.4-2.3 1.9h0c-.2.1-.3.2-.4.1s-.2-.2-.1-.5c.1-.5.3-1 .6-1.5.6-.9 1.4-1.6 2.5-2.3 1.2-.7 2.2-1.5 3.2-2.4l.1-.1c.2-.2.6-.6.3-1.1-.3-.4-.8-.2-1.1-.1h-.1c-.5.2-1.1.4-1.6.7l-2.2.9c-3.1 1.2-4.5 3.7-4 7.4.2 1 .6 1.6 1.4 1.9 1 .3 1.8-.2 2.3-.7l.2-.2 1.2-1.1v.2l-.3 1.5c-.1.9.1 1.5.5 1.8.2.1.4.2.7.2s.7-.1 1.2-.3c3.5-1.6 5.6-3.9 6.5-6.9.1-.5.4-.8.8-1.3 1.4-1.4 2-3.1 1.9-5.1l-.3-2.5c-.2-1.7-.5-3.5-.4-5.3v-.2c0-.5.1-1.2-.6-1.3-.6-.1-.9.6-1 1 0 .1-.1.2-.1.2-.8 2.4-.8 4.8-.7 6.9zm1.2-6.7c0-.1.1-.2.1-.3.2-.5.3-.7.5-.7s.2.3.2.8v.2c-.1 1.8.1 3.6.4 5.3l.3 2.4c.2 1.8-.4 3.4-1.7 4.7-.5.5-.8.9-.9 1.5-.9 2.9-2.9 5.1-6.3 6.7-.6.3-1.1.3-1.4.2-.3-.2-.4-.7-.3-1.4 0-.5.1-.9.3-1.4.1-.2.1-.5.2-.8l.1-.6-.5.3c-.7.5-1.3 1-1.8 1.6l-.2.2c-.6.6-1.2.8-1.8.6s-.9-.7-1.1-1.5c-.5-3.5.7-5.8 3.7-6.9l2.2-.9 1.6-.6h.1c.3-.1.5-.1.5-.1.1.1.1.2-.2.4l-.1.1c-.9.9-1.9 1.7-3.1 2.4s-2 1.5-2.7 2.4c-.4.6-.6 1.1-.7 1.7-.1.4.1.8.3.9.4.2.7 0 .9-.1h0c.9-.6 1.7-1.4 2.4-2 1.3-1.4 2.8-2.3 4.5-3l.6-.3.2-.1c2.6-1.2 3.3-2.4 3.1-5.2-.2-1.9-.3-4.2.6-6.5zM74 128.1c0-.2-.1-.8-.6-.8-.4 0-.6.4-.6.6v.1c-.2.4-.3.9-.4 1.3l-.8 3.1c-.9 3.5-1.8 7.1-3.1 10.5-2.2 5.8-3.3 10.7-3.5 15.4-.2 4.2.4 8.6 1.8 13.7.1.3.3.6.4.9l.1.1c.1.2.3.5.6.5h.1c.5-.1.5-.5.5-.8v-.1c0-.6.1-1.3 0-1.9 0-1-.1-2-.1-3-.1-1.8-.2-3.7-.2-5.5 0-4.1.6-8.4 2.1-13.6.3-1.2.7-2.5 1.1-3.7 1.2-3.7 2.3-7.5 2.5-11.6 0-.4.1-.7.1-1.1.1-.9.2-1.8.2-2.6 0-.5 0-1-.1-1.5H74zm-.5 4.2c0 .4-.1.7-.1 1.1h0c-.2 4-1.4 7.8-2.5 11.4-.4 1.2-.8 2.5-1.1 3.7-1.5 5.2-2.1 9.6-2.1 13.7 0 1.8.1 3.7.2 5.5 0 1 .1 2 .1 3v1.8.1c0 .3 0 .3-.1.3s-.1-.1-.2-.2l-.1-.1c-.1-.3-.3-.6-.4-.8-1.4-5.1-1.9-9.4-1.8-13.5.2-4.6 1.3-9.5 3.4-15.2 1.3-3.4 2.2-7 3.1-10.5.3-1 .5-2.1.8-3.1.1-.4.3-.9.4-1.3v-.1-.1c.1-.2.1-.3.2-.3s.1.1.2.4v.2c.1.5.1.9.1 1.4.1.9 0 1.8-.1 2.6zm-22.2 7.6c-.1-2.9-.3-6.3-.9-9.5v-.2c-.1-.4-.2-1.1-.8-1-.6 0-.7.6-.8 1 0 .1 0 .2-.1.2-.4 1.5-.4 3-.5 4.5v.7c-.2 3.5-.2 7.2-.1 11.3.1 4.9.5 9.7 1.1 14.3.1.4.1.8.1 1.2.1.9.1 1.8.4 2.6h0c.1.3.2.7.7.8h.1c.5 0 .7-.4.8-.7h0c.3-.6.3-1.2.4-1.9 0-.2 0-.5.1-.7v-.6c.1-2.1.2-4.5.2-6.8l-.7-15.2zm0 22.2v.5c0 .3-.1.5-.1.7-.1.7-.1 1.2-.4 1.7h0c-.2.3-.2.4-.4.4-.1 0-.2-.1-.3-.4h0c-.2-.8-.3-1.7-.4-2.5 0-.4-.1-.8-.1-1.2-.6-4.6-.9-9.4-1.1-14.3-.1-4.1-.1-7.8.1-11.2v-.7c.1-1.5.1-3 .5-4.5 0-.1 0-.2.1-.3.1-.4.1-.6.3-.6s.2.1.3.6v.2c.6 3.2.8 6.5.9 9.5l.6 15.4c.2 2.2.1 4.6 0 6.7z"/><path d="M60.1 79.3c.9 2.8 2.2 5.2 3.9 7.1 1.5 1.7 3.3 3 5.1 4.3.3.2.5.4.8.6 2.9 2.2 4.4 4.4 4.9 7.1.1.6.4 1.2.6 1.8v.1c.2.4.4.5.6.5s.4-.1.6-.4c.3-.4.3-.9.3-1.4v-.1c.4-3.6-.7-6.6-3.3-9l-4.2-3.5c-1.8-1.3-4-3.1-5.7-5.6-.5-.8-1.1-1.4-1.7-2.1l-.3-.3-.2-.2c-.2-.3-.6-.9-1.2-.6s-.3 1.1-.2 1.7h0zm.5-1.3h0c.2 0 .4.1.6.4.1.1.1.2.2.3l.3.3c.6.7 1.2 1.3 1.6 2.1 1.7 2.5 4 4.4 5.8 5.7 1.7 1.2 3 2.3 4.2 3.4 2.5 2.3 3.5 5.1 3.2 8.6v.1c0 .4-.1.8-.3 1.2-.1.2-.2.2-.2.2s-.1 0-.2-.2v-.1c-.2-.6-.5-1.1-.6-1.7-.5-2.9-2-5.2-5-7.5-.3-.2-.5-.4-.8-.6-1.7-1.3-3.5-2.6-5-4.3-1.7-1.9-2.9-4.1-3.8-6.9v-.1c-.2-.4-.3-.7 0-.9zm3.4 91.9c-1-2.4-2.1-5.2-2.6-8.3-.3-1.8-.7-3.5-1.3-5.2-.2-.5-.3-1-.5-1.4s-.5-.5-.6-.5c-.2 0-.4.1-.7.5-.2.4-.4.9-.4 1.5-.2 3.5.1 6.6.9 9.5 1 4 3.2 7.4 5.3 10.8l.1.1c.2.2.3.5.5.7h0c.1.1.3.4.6.4h.2c.4-.1.5-.5.5-.7v-.1h0c0-.8-.1-1.5-.3-2.1-.3-1.5-.8-3.2-1.7-5.2zm1.6 7.3c0 .2-.1.3-.2.3s-.2 0-.4-.2h0c-.2-.2-.4-.4-.5-.6l-.1-.1c-2.1-3.3-4.2-6.8-5.2-10.7-.7-2.8-1-5.8-.9-9.3 0-.5.1-1 .3-1.3.1-.2.2-.3.2-.3s.1 0 .2.2c.2.4.3.8.5 1.3.5 1.7 1 3.4 1.3 5.2.6 3.1 1.6 6 2.6 8.4.9 2 1.4 3.6 1.8 5.2a2.84 2.84 0 0 1 .4 1.9h0zm9.8-57l-.9.6-2.5 1.6c-1 .7-1.2 2.4-.5 3.8l.2.5.2-.5c0-.1.1-.3.1-.4.4-1 .7-2 1.5-2.8.3-.3.7-.6 1-.9.6-.5 1.2-1 1.6-1.6l.1-.2-.2-.1c-.2-.2-.5-.1-.6 0zm-1.1 1.6c-.4.3-.7.6-1 .9-.8.8-1.1 1.7-1.5 2.8-.3-1-.1-2.1.6-2.6.8-.6 1.6-1.1 2.4-1.6.2-.1.4-.3.6-.4-.4.2-.8.6-1.1.9z"/></svg>